REM DIRINDEX 1\2,1\3,1\4,1\5
REM DIRNAME cjc100,folder01,folder02,folder03,folder04
TITLE ""
FILE "CD1Track24.mp3" MP3
  TRACK 01 AUDIO
    TITLE "0:"
    INDEX 01 00:00:00
  TRACK 02 AUDIO
    TITLE "2:cjc100_0270"
    INDEX 01 00:00:27
  TRACK 03 AUDIO
    TITLE "2:cjc100_0271"
    INDEX 01 00:02:30
  TRACK 04 AUDIO
    TITLE "0:"
    INDEX 01 00:07:39
